<mxfile host="Electron" agent="Mozilla/5.0 (Windows NT 10.0; Win64; x64) AppleWebKit/537.36 (KHTML, like Gecko) draw.io/27.0.9 Chrome/134.0.6998.205 Electron/35.4.0 Safari/537.36" version="27.0.9">
  <diagram name="Page-1" id="nY8goQ10JtZAAZ8FhuUd">
    <mxGraphModel dx="1453" dy="952" grid="1" gridSize="10" guides="1" tooltips="1" connect="1" arrows="1" fold="1" page="1" pageScale="1" pageWidth="850" pageHeight="1100" math="0" shadow="0">
      <root>
        <mxCell id="0" />
        <mxCell id="1" parent="0" />
        <mxCell id="jK3crmN1KickR93rPYzY-73" style="edgeStyle=orthogonalEdgeStyle;rounded=0;orthogonalLoop=1;jettySize=auto;html=1;endArrow=classic;startFill=0;endFill=1;entryX=0;entryY=0.5;entryDx=0;entryDy=0;" edge="1" parent="1" source="jK3crmN1KickR93rPYzY-71" target="jK3crmN1KickR93rPYzY-52">
          <mxGeometry relative="1" as="geometry" />
        </mxCell>
        <mxCell id="jK3crmN1KickR93rPYzY-83" value="&lt;font style=&quot;font-size: 13px;&quot;&gt;&lt;b&gt;1&lt;/b&gt;&lt;/font&gt;" style="edgeLabel;html=1;align=center;verticalAlign=middle;resizable=0;points=[];" vertex="1" connectable="0" parent="jK3crmN1KickR93rPYzY-73">
          <mxGeometry x="0.5429" y="-1" relative="1" as="geometry">
            <mxPoint as="offset" />
          </mxGeometry>
        </mxCell>
        <mxCell id="jK3crmN1KickR93rPYzY-6" style="edgeStyle=orthogonalEdgeStyle;rounded=0;orthogonalLoop=1;jettySize=auto;html=1;entryX=0.5;entryY=1;entryDx=0;entryDy=0;endArrow=none;startFill=0;" edge="1" parent="1" source="jK3crmN1KickR93rPYzY-1" target="jK3crmN1KickR93rPYzY-2">
          <mxGeometry relative="1" as="geometry" />
        </mxCell>
        <mxCell id="jK3crmN1KickR93rPYzY-7" style="edgeStyle=orthogonalEdgeStyle;rounded=0;orthogonalLoop=1;jettySize=auto;html=1;entryX=0.5;entryY=1;entryDx=0;entryDy=0;endArrow=none;startFill=0;" edge="1" parent="1" source="jK3crmN1KickR93rPYzY-1" target="jK3crmN1KickR93rPYzY-3">
          <mxGeometry relative="1" as="geometry" />
        </mxCell>
        <mxCell id="jK3crmN1KickR93rPYzY-1" value="&lt;font style=&quot;color: light-dark(rgb(255, 255, 255), rgb(237, 237, 237)); font-size: 17px;&quot;&gt;Ward&lt;/font&gt;" style="rounded=1;whiteSpace=wrap;html=1;strokeWidth=2;fillColor=#008a00;strokeColor=#005700;fontColor=#ffffff;" vertex="1" parent="1">
          <mxGeometry x="80" y="200" width="120" height="40" as="geometry" />
        </mxCell>
        <mxCell id="jK3crmN1KickR93rPYzY-2" value="&lt;u&gt;Ward-ID&lt;/u&gt;" style="ellipse;whiteSpace=wrap;html=1;strokeWidth=2;" vertex="1" parent="1">
          <mxGeometry x="50" y="120" width="60" height="40" as="geometry" />
        </mxCell>
        <mxCell id="jK3crmN1KickR93rPYzY-3" value="Name" style="ellipse;whiteSpace=wrap;html=1;strokeWidth=2;" vertex="1" parent="1">
          <mxGeometry x="170" y="120" width="60" height="40" as="geometry" />
        </mxCell>
        <mxCell id="jK3crmN1KickR93rPYzY-8" style="edgeStyle=orthogonalEdgeStyle;rounded=0;orthogonalLoop=1;jettySize=auto;html=1;entryX=0.5;entryY=1;entryDx=0;entryDy=0;endArrow=none;startFill=0;" edge="1" parent="1" source="jK3crmN1KickR93rPYzY-10" target="jK3crmN1KickR93rPYzY-11">
          <mxGeometry relative="1" as="geometry" />
        </mxCell>
        <mxCell id="jK3crmN1KickR93rPYzY-9" style="edgeStyle=orthogonalEdgeStyle;rounded=0;orthogonalLoop=1;jettySize=auto;html=1;entryX=0.5;entryY=1;entryDx=0;entryDy=0;endArrow=none;startFill=0;" edge="1" parent="1" source="jK3crmN1KickR93rPYzY-10" target="jK3crmN1KickR93rPYzY-12">
          <mxGeometry relative="1" as="geometry" />
        </mxCell>
        <mxCell id="jK3crmN1KickR93rPYzY-16" style="edgeStyle=orthogonalEdgeStyle;rounded=0;orthogonalLoop=1;jettySize=auto;html=1;entryX=0.5;entryY=1;entryDx=0;entryDy=0;endArrow=none;startFill=0;" edge="1" parent="1" source="jK3crmN1KickR93rPYzY-10" target="jK3crmN1KickR93rPYzY-14">
          <mxGeometry relative="1" as="geometry" />
        </mxCell>
        <mxCell id="jK3crmN1KickR93rPYzY-10" value="&lt;font style=&quot;color: light-dark(rgb(255, 255, 255), rgb(237, 237, 237)); font-size: 17px;&quot;&gt;Patient&lt;/font&gt;" style="rounded=1;whiteSpace=wrap;html=1;strokeWidth=2;fillColor=#008a00;strokeColor=#005700;fontColor=#ffffff;" vertex="1" parent="1">
          <mxGeometry x="550" y="200" width="120" height="40" as="geometry" />
        </mxCell>
        <mxCell id="jK3crmN1KickR93rPYzY-11" value="&lt;u&gt;Patient-ID&lt;/u&gt;" style="ellipse;whiteSpace=wrap;html=1;strokeWidth=2;" vertex="1" parent="1">
          <mxGeometry x="500" y="120" width="70" height="40" as="geometry" />
        </mxCell>
        <mxCell id="jK3crmN1KickR93rPYzY-12" value="Name" style="ellipse;whiteSpace=wrap;html=1;strokeWidth=2;" vertex="1" parent="1">
          <mxGeometry x="660" y="120" width="60" height="40" as="geometry" />
        </mxCell>
        <mxCell id="jK3crmN1KickR93rPYzY-14" value="DOB" style="ellipse;whiteSpace=wrap;html=1;strokeWidth=2;" vertex="1" parent="1">
          <mxGeometry x="580" y="110" width="60" height="40" as="geometry" />
        </mxCell>
        <mxCell id="jK3crmN1KickR93rPYzY-18" style="edgeStyle=orthogonalEdgeStyle;rounded=0;orthogonalLoop=1;jettySize=auto;html=1;entryX=0;entryY=0.5;entryDx=0;entryDy=0;shape=link;" edge="1" parent="1" source="jK3crmN1KickR93rPYzY-17" target="jK3crmN1KickR93rPYzY-10">
          <mxGeometry relative="1" as="geometry" />
        </mxCell>
        <mxCell id="jK3crmN1KickR93rPYzY-25" value="&lt;font style=&quot;font-size: 13px;&quot;&gt;&lt;b&gt;M&lt;/b&gt;&lt;/font&gt;" style="edgeLabel;html=1;align=center;verticalAlign=middle;resizable=0;points=[];" vertex="1" connectable="0" parent="jK3crmN1KickR93rPYzY-18">
          <mxGeometry x="0.6286" relative="1" as="geometry">
            <mxPoint as="offset" />
          </mxGeometry>
        </mxCell>
        <mxCell id="jK3crmN1KickR93rPYzY-19" style="edgeStyle=orthogonalEdgeStyle;rounded=0;orthogonalLoop=1;jettySize=auto;html=1;entryX=1;entryY=0.5;entryDx=0;entryDy=0;" edge="1" parent="1" source="jK3crmN1KickR93rPYzY-17" target="jK3crmN1KickR93rPYzY-1">
          <mxGeometry relative="1" as="geometry" />
        </mxCell>
        <mxCell id="jK3crmN1KickR93rPYzY-21" value="&lt;font style=&quot;font-size: 13px;&quot;&gt;&lt;b&gt;1&lt;/b&gt;&lt;/font&gt;" style="edgeLabel;html=1;align=center;verticalAlign=middle;resizable=0;points=[];" vertex="1" connectable="0" parent="jK3crmN1KickR93rPYzY-19">
          <mxGeometry x="0.4462" y="-1" relative="1" as="geometry">
            <mxPoint as="offset" />
          </mxGeometry>
        </mxCell>
        <mxCell id="jK3crmN1KickR93rPYzY-17" value="&lt;font style=&quot;font-size: 15px;&quot;&gt;Host&lt;/font&gt;" style="shape=rhombus;perimeter=rhombusPerimeter;whiteSpace=wrap;html=1;align=center;strokeWidth=2;" vertex="1" parent="1">
          <mxGeometry x="330" y="195" width="80" height="50" as="geometry" />
        </mxCell>
        <mxCell id="jK3crmN1KickR93rPYzY-26" style="edgeStyle=orthogonalEdgeStyle;rounded=0;orthogonalLoop=1;jettySize=auto;html=1;entryX=0.5;entryY=1;entryDx=0;entryDy=0;endArrow=none;startFill=0;" edge="1" parent="1" source="jK3crmN1KickR93rPYzY-28" target="jK3crmN1KickR93rPYzY-29">
          <mxGeometry relative="1" as="geometry" />
        </mxCell>
        <mxCell id="jK3crmN1KickR93rPYzY-27" style="edgeStyle=orthogonalEdgeStyle;rounded=0;orthogonalLoop=1;jettySize=auto;html=1;entryX=0.5;entryY=1;entryDx=0;entryDy=0;endArrow=none;startFill=0;" edge="1" parent="1" source="jK3crmN1KickR93rPYzY-28" target="jK3crmN1KickR93rPYzY-30">
          <mxGeometry relative="1" as="geometry" />
        </mxCell>
        <mxCell id="jK3crmN1KickR93rPYzY-28" value="&lt;font style=&quot;color: light-dark(rgb(255, 255, 255), rgb(237, 237, 237)); font-size: 17px;&quot;&gt;Consultant&lt;/font&gt;" style="rounded=1;whiteSpace=wrap;html=1;strokeWidth=2;fillColor=#008a00;strokeColor=#005700;fontColor=#ffffff;" vertex="1" parent="1">
          <mxGeometry x="950" y="200" width="120" height="40" as="geometry" />
        </mxCell>
        <mxCell id="jK3crmN1KickR93rPYzY-29" value="&lt;u&gt;Cons-ID&lt;/u&gt;" style="ellipse;whiteSpace=wrap;html=1;strokeWidth=2;" vertex="1" parent="1">
          <mxGeometry x="920" y="120" width="60" height="40" as="geometry" />
        </mxCell>
        <mxCell id="jK3crmN1KickR93rPYzY-30" value="Name" style="ellipse;whiteSpace=wrap;html=1;strokeWidth=2;" vertex="1" parent="1">
          <mxGeometry x="1040" y="120" width="60" height="40" as="geometry" />
        </mxCell>
        <mxCell id="jK3crmN1KickR93rPYzY-33" style="edgeStyle=orthogonalEdgeStyle;rounded=0;orthogonalLoop=1;jettySize=auto;html=1;entryX=0;entryY=0.5;entryDx=0;entryDy=0;" edge="1" parent="1" source="jK3crmN1KickR93rPYzY-32" target="jK3crmN1KickR93rPYzY-28">
          <mxGeometry relative="1" as="geometry" />
        </mxCell>
        <mxCell id="jK3crmN1KickR93rPYzY-35" value="&lt;font style=&quot;font-size: 13px;&quot;&gt;&lt;b&gt;1&lt;/b&gt;&lt;/font&gt;" style="edgeLabel;html=1;align=center;verticalAlign=middle;resizable=0;points=[];" vertex="1" connectable="0" parent="jK3crmN1KickR93rPYzY-33">
          <mxGeometry x="0.36" y="-1" relative="1" as="geometry">
            <mxPoint as="offset" />
          </mxGeometry>
        </mxCell>
        <mxCell id="jK3crmN1KickR93rPYzY-34" style="edgeStyle=orthogonalEdgeStyle;rounded=0;orthogonalLoop=1;jettySize=auto;html=1;entryX=1;entryY=0.5;entryDx=0;entryDy=0;shape=link;" edge="1" parent="1" source="jK3crmN1KickR93rPYzY-32" target="jK3crmN1KickR93rPYzY-10">
          <mxGeometry relative="1" as="geometry" />
        </mxCell>
        <mxCell id="jK3crmN1KickR93rPYzY-39" value="&lt;font style=&quot;font-size: 13px;&quot;&gt;&lt;b&gt;M&lt;/b&gt;&lt;/font&gt;" style="edgeLabel;html=1;align=center;verticalAlign=middle;resizable=0;points=[];" vertex="1" connectable="0" parent="jK3crmN1KickR93rPYzY-34">
          <mxGeometry x="0.52" relative="1" as="geometry">
            <mxPoint as="offset" />
          </mxGeometry>
        </mxCell>
        <mxCell id="jK3crmN1KickR93rPYzY-32" value="&lt;font style=&quot;font-size: 15px;&quot;&gt;Assigned&lt;/font&gt;" style="shape=rhombus;perimeter=rhombusPerimeter;whiteSpace=wrap;html=1;align=center;strokeWidth=2;" vertex="1" parent="1">
          <mxGeometry x="770" y="192.5" width="90" height="55" as="geometry" />
        </mxCell>
        <mxCell id="jK3crmN1KickR93rPYzY-37" style="edgeStyle=orthogonalEdgeStyle;rounded=0;orthogonalLoop=1;jettySize=auto;html=1;entryX=0.5;entryY=1;entryDx=0;entryDy=0;" edge="1" parent="1" source="jK3crmN1KickR93rPYzY-36" target="jK3crmN1KickR93rPYzY-28">
          <mxGeometry relative="1" as="geometry" />
        </mxCell>
        <mxCell id="jK3crmN1KickR93rPYzY-41" value="&lt;font style=&quot;font-size: 13px;&quot;&gt;&lt;b&gt;N&lt;/b&gt;&lt;/font&gt;" style="edgeLabel;html=1;align=center;verticalAlign=middle;resizable=0;points=[];" vertex="1" connectable="0" parent="jK3crmN1KickR93rPYzY-37">
          <mxGeometry x="0.75" y="1" relative="1" as="geometry">
            <mxPoint as="offset" />
          </mxGeometry>
        </mxCell>
        <mxCell id="jK3crmN1KickR93rPYzY-38" style="edgeStyle=orthogonalEdgeStyle;rounded=0;orthogonalLoop=1;jettySize=auto;html=1;entryX=0.833;entryY=1;entryDx=0;entryDy=0;entryPerimeter=0;" edge="1" parent="1" source="jK3crmN1KickR93rPYzY-36" target="jK3crmN1KickR93rPYzY-10">
          <mxGeometry relative="1" as="geometry" />
        </mxCell>
        <mxCell id="jK3crmN1KickR93rPYzY-40" value="&lt;font style=&quot;font-size: 13px;&quot;&gt;&lt;b&gt;M&lt;/b&gt;&lt;/font&gt;" style="edgeLabel;html=1;align=center;verticalAlign=middle;resizable=0;points=[];" vertex="1" connectable="0" parent="jK3crmN1KickR93rPYzY-38">
          <mxGeometry x="0.704" relative="1" as="geometry">
            <mxPoint as="offset" />
          </mxGeometry>
        </mxCell>
        <mxCell id="jK3crmN1KickR93rPYzY-36" value="&lt;font style=&quot;font-size: 15px;&quot;&gt;Examined&lt;/font&gt;" style="shape=rhombus;perimeter=rhombusPerimeter;whiteSpace=wrap;html=1;align=center;strokeWidth=2;" vertex="1" parent="1">
          <mxGeometry x="770" y="300" width="100" height="60" as="geometry" />
        </mxCell>
        <mxCell id="jK3crmN1KickR93rPYzY-49" style="edgeStyle=orthogonalEdgeStyle;rounded=0;orthogonalLoop=1;jettySize=auto;html=1;entryX=0.5;entryY=1;entryDx=0;entryDy=0;endArrow=none;startFill=0;" edge="1" parent="1" source="jK3crmN1KickR93rPYzY-52" target="jK3crmN1KickR93rPYzY-53">
          <mxGeometry relative="1" as="geometry" />
        </mxCell>
        <mxCell id="jK3crmN1KickR93rPYzY-50" style="edgeStyle=orthogonalEdgeStyle;rounded=0;orthogonalLoop=1;jettySize=auto;html=1;entryX=0.5;entryY=1;entryDx=0;entryDy=0;endArrow=none;startFill=0;" edge="1" parent="1" source="jK3crmN1KickR93rPYzY-52" target="jK3crmN1KickR93rPYzY-54">
          <mxGeometry relative="1" as="geometry" />
        </mxCell>
        <mxCell id="jK3crmN1KickR93rPYzY-51" style="edgeStyle=orthogonalEdgeStyle;rounded=0;orthogonalLoop=1;jettySize=auto;html=1;entryX=0.5;entryY=1;entryDx=0;entryDy=0;endArrow=none;startFill=0;" edge="1" parent="1" source="jK3crmN1KickR93rPYzY-52" target="jK3crmN1KickR93rPYzY-55">
          <mxGeometry relative="1" as="geometry" />
        </mxCell>
        <mxCell id="jK3crmN1KickR93rPYzY-52" value="&lt;font style=&quot;color: light-dark(rgb(255, 255, 255), rgb(237, 237, 237)); font-size: 17px;&quot;&gt;Nurse&lt;/font&gt;" style="rounded=1;whiteSpace=wrap;html=1;strokeWidth=2;fillColor=#008a00;strokeColor=#005700;fontColor=#ffffff;" vertex="1" parent="1">
          <mxGeometry x="300" y="440" width="120" height="40" as="geometry" />
        </mxCell>
        <mxCell id="jK3crmN1KickR93rPYzY-53" value="&lt;u&gt;Name&lt;/u&gt;" style="ellipse;whiteSpace=wrap;html=1;strokeWidth=2;" vertex="1" parent="1">
          <mxGeometry x="250" y="360" width="70" height="40" as="geometry" />
        </mxCell>
        <mxCell id="jK3crmN1KickR93rPYzY-54" value="Address" style="ellipse;whiteSpace=wrap;html=1;strokeWidth=2;" vertex="1" parent="1">
          <mxGeometry x="410" y="360" width="60" height="40" as="geometry" />
        </mxCell>
        <mxCell id="jK3crmN1KickR93rPYzY-55" value="Number" style="ellipse;whiteSpace=wrap;html=1;strokeWidth=2;" vertex="1" parent="1">
          <mxGeometry x="330" y="350" width="60" height="40" as="geometry" />
        </mxCell>
        <mxCell id="jK3crmN1KickR93rPYzY-60" style="edgeStyle=orthogonalEdgeStyle;rounded=0;orthogonalLoop=1;jettySize=auto;html=1;entryX=0.5;entryY=1;entryDx=0;entryDy=0;endArrow=none;startFill=0;" edge="1" parent="1" source="jK3crmN1KickR93rPYzY-63" target="jK3crmN1KickR93rPYzY-64">
          <mxGeometry relative="1" as="geometry" />
        </mxCell>
        <mxCell id="jK3crmN1KickR93rPYzY-61" style="edgeStyle=orthogonalEdgeStyle;rounded=0;orthogonalLoop=1;jettySize=auto;html=1;entryX=0.5;entryY=1;entryDx=0;entryDy=0;endArrow=none;startFill=0;" edge="1" parent="1" source="jK3crmN1KickR93rPYzY-63" target="jK3crmN1KickR93rPYzY-65">
          <mxGeometry relative="1" as="geometry" />
        </mxCell>
        <mxCell id="jK3crmN1KickR93rPYzY-62" style="edgeStyle=orthogonalEdgeStyle;rounded=0;orthogonalLoop=1;jettySize=auto;html=1;entryX=0.5;entryY=1;entryDx=0;entryDy=0;endArrow=none;startFill=0;" edge="1" parent="1" source="jK3crmN1KickR93rPYzY-63" target="jK3crmN1KickR93rPYzY-67">
          <mxGeometry relative="1" as="geometry">
            <mxPoint x="340" y="640" as="targetPoint" />
          </mxGeometry>
        </mxCell>
        <mxCell id="jK3crmN1KickR93rPYzY-80" style="edgeStyle=orthogonalEdgeStyle;rounded=0;orthogonalLoop=1;jettySize=auto;html=1;exitX=0.5;exitY=1;exitDx=0;exitDy=0;entryX=1;entryY=0.5;entryDx=0;entryDy=0;" edge="1" parent="1" source="jK3crmN1KickR93rPYzY-68" target="jK3crmN1KickR93rPYzY-63">
          <mxGeometry relative="1" as="geometry" />
        </mxCell>
        <mxCell id="jK3crmN1KickR93rPYzY-63" value="&lt;font style=&quot;color: light-dark(rgb(255, 255, 255), rgb(237, 237, 237)); font-size: 17px;&quot;&gt;Drug&lt;/font&gt;" style="rounded=1;whiteSpace=wrap;html=1;strokeWidth=2;fillColor=#008a00;strokeColor=#005700;fontColor=#ffffff;" vertex="1" parent="1">
          <mxGeometry x="280" y="690" width="120" height="40" as="geometry" />
        </mxCell>
        <mxCell id="jK3crmN1KickR93rPYzY-64" value="&lt;u&gt;Code-Number&lt;/u&gt;" style="ellipse;whiteSpace=wrap;html=1;strokeWidth=2;" vertex="1" parent="1">
          <mxGeometry x="210" y="610" width="90" height="40" as="geometry" />
        </mxCell>
        <mxCell id="jK3crmN1KickR93rPYzY-65" value="Rec-Dosage" style="ellipse;whiteSpace=wrap;html=1;strokeWidth=2;" vertex="1" parent="1">
          <mxGeometry x="390" y="610" width="80" height="40" as="geometry" />
        </mxCell>
        <mxCell id="jK3crmN1KickR93rPYzY-67" value="Brand" style="ellipse;shape=doubleEllipse;margin=3;whiteSpace=wrap;html=1;align=center;" vertex="1" parent="1">
          <mxGeometry x="300" y="590" width="80" height="40" as="geometry" />
        </mxCell>
        <mxCell id="jK3crmN1KickR93rPYzY-69" style="edgeStyle=orthogonalEdgeStyle;rounded=0;orthogonalLoop=1;jettySize=auto;html=1;entryX=1;entryY=0.5;entryDx=0;entryDy=0;" edge="1" parent="1" source="jK3crmN1KickR93rPYzY-68" target="jK3crmN1KickR93rPYzY-52">
          <mxGeometry relative="1" as="geometry" />
        </mxCell>
        <mxCell id="jK3crmN1KickR93rPYzY-68" value="&lt;font style=&quot;font-size: 15px;&quot;&gt;Take&lt;/font&gt;" style="shape=rhombus;perimeter=rhombusPerimeter;whiteSpace=wrap;html=1;align=center;strokeWidth=2;" vertex="1" parent="1">
          <mxGeometry x="530" y="435" width="80" height="50" as="geometry" />
        </mxCell>
        <mxCell id="jK3crmN1KickR93rPYzY-70" style="edgeStyle=orthogonalEdgeStyle;rounded=0;orthogonalLoop=1;jettySize=auto;html=1;entryX=0.167;entryY=1;entryDx=0;entryDy=0;entryPerimeter=0;" edge="1" parent="1" source="jK3crmN1KickR93rPYzY-68" target="jK3crmN1KickR93rPYzY-10">
          <mxGeometry relative="1" as="geometry" />
        </mxCell>
        <mxCell id="jK3crmN1KickR93rPYzY-72" style="edgeStyle=orthogonalEdgeStyle;rounded=0;orthogonalLoop=1;jettySize=auto;html=1;entryX=0.5;entryY=1;entryDx=0;entryDy=0;shape=link;" edge="1" parent="1" source="jK3crmN1KickR93rPYzY-71" target="jK3crmN1KickR93rPYzY-1">
          <mxGeometry relative="1" as="geometry" />
        </mxCell>
        <mxCell id="jK3crmN1KickR93rPYzY-82" value="&lt;font style=&quot;font-size: 13px;&quot;&gt;&lt;b&gt;1&lt;/b&gt;&lt;/font&gt;" style="edgeLabel;html=1;align=center;verticalAlign=middle;resizable=0;points=[];" vertex="1" connectable="0" parent="jK3crmN1KickR93rPYzY-72">
          <mxGeometry x="0.6659" y="-1" relative="1" as="geometry">
            <mxPoint as="offset" />
          </mxGeometry>
        </mxCell>
        <mxCell id="jK3crmN1KickR93rPYzY-71" value="&lt;font style=&quot;font-size: 15px;&quot;&gt;Supervise&lt;/font&gt;" style="shape=rhombus;perimeter=rhombusPerimeter;whiteSpace=wrap;html=1;align=center;strokeWidth=2;" vertex="1" parent="1">
          <mxGeometry x="87.5" y="435" width="105" height="50" as="geometry" />
        </mxCell>
        <mxCell id="jK3crmN1KickR93rPYzY-75" style="edgeStyle=orthogonalEdgeStyle;rounded=0;orthogonalLoop=1;jettySize=auto;html=1;entryX=1;entryY=0;entryDx=0;entryDy=0;endArrow=none;startFill=0;" edge="1" parent="1" source="jK3crmN1KickR93rPYzY-74" target="jK3crmN1KickR93rPYzY-68">
          <mxGeometry relative="1" as="geometry" />
        </mxCell>
        <mxCell id="jK3crmN1KickR93rPYzY-74" value="Dosage" style="ellipse;whiteSpace=wrap;html=1;strokeWidth=2;" vertex="1" parent="1">
          <mxGeometry x="580" y="390" width="50" height="30" as="geometry" />
        </mxCell>
        <mxCell id="jK3crmN1KickR93rPYzY-77" style="edgeStyle=orthogonalEdgeStyle;rounded=0;orthogonalLoop=1;jettySize=auto;html=1;exitX=0.5;exitY=1;exitDx=0;exitDy=0;endArrow=none;startFill=0;entryX=1;entryY=0.5;entryDx=0;entryDy=0;" edge="1" parent="1" source="jK3crmN1KickR93rPYzY-76" target="jK3crmN1KickR93rPYzY-68">
          <mxGeometry relative="1" as="geometry">
            <Array as="points">
              <mxPoint x="670" y="450" />
              <mxPoint x="610" y="450" />
            </Array>
          </mxGeometry>
        </mxCell>
        <mxCell id="jK3crmN1KickR93rPYzY-76" value="Date" style="ellipse;whiteSpace=wrap;html=1;strokeWidth=2;" vertex="1" parent="1">
          <mxGeometry x="650" y="405" width="40" height="30" as="geometry" />
        </mxCell>
        <mxCell id="jK3crmN1KickR93rPYzY-81" value="" style="edgeStyle=orthogonalEdgeStyle;rounded=0;orthogonalLoop=1;jettySize=auto;html=1;endArrow=none;startFill=0;" edge="1" parent="1" source="jK3crmN1KickR93rPYzY-78" target="jK3crmN1KickR93rPYzY-68">
          <mxGeometry relative="1" as="geometry" />
        </mxCell>
        <mxCell id="jK3crmN1KickR93rPYzY-78" value="Time" style="ellipse;whiteSpace=wrap;html=1;strokeWidth=2;" vertex="1" parent="1">
          <mxGeometry x="660" y="460" width="40" height="30" as="geometry" />
        </mxCell>
        <mxCell id="jK3crmN1KickR93rPYzY-85" style="edgeStyle=orthogonalEdgeStyle;rounded=0;orthogonalLoop=1;jettySize=auto;html=1;entryX=0.5;entryY=1;entryDx=0;entryDy=0;shape=link;" edge="1" parent="1" source="jK3crmN1KickR93rPYzY-84" target="jK3crmN1KickR93rPYzY-52">
          <mxGeometry relative="1" as="geometry" />
        </mxCell>
        <mxCell id="jK3crmN1KickR93rPYzY-88" value="&lt;font style=&quot;font-size: 13px;&quot;&gt;&lt;b&gt;M&lt;/b&gt;&lt;/font&gt;" style="edgeLabel;html=1;align=center;verticalAlign=middle;resizable=0;points=[];" vertex="1" connectable="0" parent="jK3crmN1KickR93rPYzY-85">
          <mxGeometry x="0.7843" y="-1" relative="1" as="geometry">
            <mxPoint as="offset" />
          </mxGeometry>
        </mxCell>
        <mxCell id="jK3crmN1KickR93rPYzY-86" style="edgeStyle=orthogonalEdgeStyle;rounded=0;orthogonalLoop=1;jettySize=auto;html=1;entryX=0;entryY=0.5;entryDx=0;entryDy=0;" edge="1" parent="1" source="jK3crmN1KickR93rPYzY-84" target="jK3crmN1KickR93rPYzY-1">
          <mxGeometry relative="1" as="geometry">
            <Array as="points">
              <mxPoint x="40" y="535" />
              <mxPoint x="40" y="220" />
            </Array>
          </mxGeometry>
        </mxCell>
        <mxCell id="jK3crmN1KickR93rPYzY-87" value="&lt;font style=&quot;font-size: 13px;&quot;&gt;&lt;b&gt;1&lt;/b&gt;&lt;/font&gt;" style="edgeLabel;html=1;align=center;verticalAlign=middle;resizable=0;points=[];" vertex="1" connectable="0" parent="jK3crmN1KickR93rPYzY-86">
          <mxGeometry x="0.6039" y="3" relative="1" as="geometry">
            <mxPoint as="offset" />
          </mxGeometry>
        </mxCell>
        <mxCell id="jK3crmN1KickR93rPYzY-84" value="&lt;font style=&quot;font-size: 15px;&quot;&gt;Serve&lt;/font&gt;" style="shape=rhombus;perimeter=rhombusPerimeter;whiteSpace=wrap;html=1;align=center;strokeWidth=2;" vertex="1" parent="1">
          <mxGeometry x="87.5" y="510" width="105" height="50" as="geometry" />
        </mxCell>
      </root>
    </mxGraphModel>
  </diagram>
</mxfile>
